<?xml version="1.0" encoding="UTF-8"?><svg id="Layer_3" xmlns="http://www.w3.org/2000/svg" viewBox="0 0 141.97 161.39"><defs><style>.cls-1{fill:#fff;}</style></defs><g id="Layer_1"><path class="cls-1" d="M141.97,69.61h0c0-11.62-9.42-21.03-21.03-21.03h-9.34l3.08-25.14c1.41-11.53-6.79-22.02-18.31-23.44h0l-5.96,48.57h-28.27l3.08-25.14c1.41-11.53-6.79-22.02-18.31-23.44h0l-5.96,48.57h-19.92c-11.62,0-21.03,9.42-21.03,21.03h0s38.37,0,38.37,0l-3.99,32.55h-13.34c-11.62,0-21.03,9.42-21.03,21.03h31.79l-4.67,38.04h0c11.53,1.41,22.02-6.79,23.44-18.31l2.42-19.73h28.27l-4.67,38.04h0c11.53,1.41,22.02-6.79,23.44-18.31l2.42-19.73h39.52c0-11.62-9.42-21.03-21.03-21.03h-15.91l3.99-32.55h32.95ZM83.83,102.16h-28.27l3.99-32.55h28.27l-3.99,32.55Z"/></g></svg>