<?xml version="1.0" encoding="UTF-8"?><svg id="Layer_2" xmlns="http://www.w3.org/2000/svg" viewBox="0 0 827.64 156.78"><g id="Layer_1"><path d="M104.81,22.4c-14.13-10.66-32.18-15.66-60.02-15.66C28.05,6.74,12.18,7.83,0,9.79v143.95c8.26,1.09,20.44,2.17,37.62,2.17,28.7,0,52.19-6.09,67.63-18.92,14.13-11.96,24.35-31.31,24.35-59.36,0-25.88-9.57-43.93-24.79-55.23ZM44.79,130.04c-4.13,0-8.7,0-11.52-.65V33.49c2.83-.65,7.61-1.3,15-1.3,28.49,0,46.32,16.09,46.1,46.54,0,35.01-19.57,51.54-49.58,51.32Z"/><path d="M257.47,7.83h-37.84l-12.4,26.75c-3.7,8.48-6.52,15-10,24.35h-.44c-3.48-8.26-6.74-15.44-11.09-24.35l-12.83-26.75h-38.05l40.88,72.41-42.4,74.15h37.84l12.18-26.53c4.57-10.22,8.26-17.83,11.31-26.31h.44c4.13,8.48,7.61,16.09,13.05,26.31l13.26,26.53h38.27l-43.49-75.02L257.47,7.83Z"/><polygon points="305.31 89.37 360.54 89.37 360.54 67.63 305.31 67.63 305.31 29.79 363.81 29.79 363.81 7.83 278.56 7.83 278.56 154.39 367.07 154.39 367.07 132.43 305.31 132.43 305.31 89.37"/><path d="M486.24,0h-26.75v60.02h-.43c-4.78-7.83-15.22-13.92-29.79-13.92-25.44,0-47.62,21.09-47.4,56.54,0,32.62,20.01,54.15,45.23,54.15,15.44,0,28.27-7.39,34.58-19.14h.43l1.09,16.74h23.92c-.43-7.18-.87-18.92-.87-29.79V0ZM459.49,108.51c0,2.83-.22,5.44-.87,7.83-2.61,11.53-12.18,18.92-23.05,18.92-16.96,0-26.53-14.13-26.53-33.49s9.57-35.01,26.75-35.01c12.18,0,20.66,8.48,23.05,18.92.43,2.17.65,4.78.65,6.96v15.87Z"/><path d="M528.42,4.35c-8.92,0-15,6.31-15,14.57s5.87,14.35,14.79,14.35c9.35,0,15.22-6.31,15.22-14.35-.22-8.26-5.87-14.57-15-14.57Z"/><rect x="514.94" y="48.49" width="26.96" height="105.9"/><path d="M601.27,18.27l-26.09,6.31v23.92h-15.22v20.01h15.22v49.8c0,13.92,2.61,23.49,8.26,29.57,5,5.44,13.26,8.7,23.05,8.7,8.48,0,15.44-1.09,19.35-2.61l-.43-20.44c-2.39.65-5.87,1.31-10.44,1.31-10.22,0-13.7-6.74-13.7-19.57v-46.75h25.44v-20.01h-25.44v-30.23Z"/><path d="M693.69,46.1c-31.97,0-54.8,21.31-54.8,56.1s23.05,54.58,53.06,54.58c26.96,0,54.36-17.4,54.36-56.32,0-32.18-21.09-54.36-52.62-54.36ZM692.82,137.43c-16.31,0-26.31-15.44-26.31-35.88,0-17.61,7.61-35.88,26.53-35.88s25.66,18.92,25.66,35.44c0,21.31-10.66,36.32-25.88,36.32Z"/><path d="M821.34,46.1c-11.31,0-23.7,7.61-28.92,22.62h-.87l-.87-20.22h-23.27c.65,9.57.87,19.79.87,34.14v71.76h26.75v-54.8c0-3.04.43-5.87.87-8.26,2.39-11.96,11.09-20.22,23.92-20.22,3.26,0,5.65.43,7.83.87v-25.22c-2.17-.43-3.7-.65-6.31-.65Z"/></g></svg>