<?xml version="1.0" encoding="UTF-8"?><svg id="Layer_2" xmlns="http://www.w3.org/2000/svg" viewBox="0 0 1044.49 161.39"><g id="Layer_1"><path d="M321.66,25.75c-14.13-10.66-32.18-15.66-60.02-15.66-16.74,0-32.62,1.09-44.79,3.04v143.95c8.26,1.09,20.44,2.17,37.62,2.17,28.7,0,52.19-6.09,67.63-18.92,14.13-11.96,24.35-31.31,24.35-59.36,0-25.88-9.57-43.93-24.79-55.23ZM261.64,133.39c-4.13,0-8.7,0-11.52-.65V36.84c2.83-.65,7.61-1.3,15-1.3,28.49,0,46.32,16.09,46.1,46.54,0,35.01-19.57,51.54-49.58,51.32Z"/><path d="M474.31,11.18h-37.84l-12.4,26.75c-3.7,8.48-6.52,15-10,24.35h-.44c-3.48-8.26-6.74-15.44-11.09-24.35l-12.83-26.75h-38.05l40.88,72.41-42.4,74.15h37.84l12.18-26.53c4.57-10.22,8.26-17.83,11.31-26.31h.44c4.13,8.48,7.61,16.09,13.05,26.31l13.26,26.53h38.27l-43.49-75.02,41.32-71.54Z"/><polygon points="522.15 92.72 577.39 92.72 577.39 70.98 522.15 70.98 522.15 33.14 580.65 33.14 580.65 11.18 495.41 11.18 495.41 157.74 583.91 157.74 583.91 135.78 522.15 135.78 522.15 92.72"/><path d="M703.08,3.35h-26.75v60.02h-.43c-4.78-7.83-15.22-13.92-29.79-13.92-25.44,0-47.62,21.09-47.41,56.54,0,32.62,20.01,54.15,45.23,54.15,15.44,0,28.27-7.39,34.58-19.14h.43l1.09,16.74h23.92c-.43-7.18-.87-18.92-.87-29.79V3.35ZM676.33,111.86c0,2.83-.22,5.44-.87,7.83-2.61,11.53-12.18,18.92-23.05,18.92-16.96,0-26.53-14.13-26.53-33.49s9.57-35.01,26.75-35.01c12.18,0,20.66,8.48,23.05,18.92.43,2.17.65,4.78.65,6.96v15.87Z"/><rect x="731.78" y="51.84" width="26.96" height="105.9"/><path d="M745.26,7.7c-8.92,0-15,6.31-15,14.57s5.87,14.35,14.79,14.35c9.35,0,15.22-6.31,15.22-14.35-.22-8.26-5.87-14.57-15-14.57Z"/><path d="M818.11,21.61l-26.09,6.31v23.92h-15.22v20.01h15.22v49.8c0,13.92,2.61,23.49,8.26,29.57,5,5.44,13.26,8.7,23.05,8.7,8.48,0,15.44-1.09,19.35-2.61l-.43-20.44c-2.39.65-5.87,1.31-10.44,1.31-10.22,0-13.7-6.74-13.7-19.57v-46.75h25.44v-20.01h-25.44v-30.23Z"/><path d="M910.53,49.45c-31.97,0-54.8,21.31-54.8,56.1s23.05,54.58,53.06,54.58c26.96,0,54.36-17.4,54.36-56.32,0-32.18-21.09-54.36-52.62-54.36ZM909.66,140.78c-16.31,0-26.31-15.44-26.31-35.88,0-17.61,7.61-35.88,26.53-35.88s25.66,18.92,25.66,35.44c0,21.31-10.66,36.32-25.88,36.32Z"/><path d="M1038.18,49.45c-11.31,0-23.7,7.61-28.92,22.62h-.87l-.87-20.22h-23.27c.65,9.57.87,19.79.87,34.14v71.76h26.75v-54.8c0-3.04.43-5.87.87-8.26,2.39-11.96,11.09-20.22,23.92-20.22,3.26,0,5.65.43,7.83.87v-25.22c-2.17-.43-3.7-.65-6.31-.65Z"/><path d="M120.93,48.57h-9.34l3.08-25.14c1.41-11.53-6.79-22.02-18.31-23.44h0l-5.96,48.57h-28.27l3.08-25.14c1.41-11.53-6.79-22.02-18.31-23.44h0l-5.96,48.57h-19.92c-11.62,0-21.03,9.42-21.03,21.03h38.37l-3.99,32.55h-13.34c-11.62,0-21.03,9.42-21.03,21.03h31.79l-4.67,38.04h0c11.53,1.41,22.02-6.78,23.44-18.31l2.42-19.73h28.27l-4.67,38.04h0c11.53,1.41,22.02-6.78,23.44-18.31l2.42-19.73h39.52c0-11.62-9.42-21.03-21.03-21.03h-15.91l3.99-32.55h32.95c0-11.62-9.42-21.03-21.03-21.03ZM83.83,102.16h-28.27l3.99-32.55h28.27l-3.99,32.55Z"/></g></svg>